<svg width="33" height="33" viewBox="0 0 33 33" fill="none" xmlns="http://www.w3.org/2000/svg">
<path d="M28.6153 23.6219C27.6096 22.6154 26.4345 21.794 25.1439 21.1951C26.9639 19.7206 28.1251 17.4706 28.1251 14.9474C28.1251 10.4956 24.4126 6.84335 19.9608 6.91166C15.5773 6.97996 12.0456 10.5518 12.0456 14.9474C12.0456 17.4706 13.2108 19.7206 15.0269 21.1951C13.736 21.7935 12.5608 22.6151 11.5555 23.6219C9.36171 25.8197 8.11617 28.7206 8.03581 31.8143C8.03474 31.8572 8.04226 31.8999 8.05794 31.9398C8.07361 31.9797 8.09712 32.0161 8.12707 32.0468C8.15702 32.0775 8.19282 32.1019 8.23235 32.1186C8.27188 32.1352 8.31435 32.1438 8.35724 32.1438H10.6072C10.78 32.1438 10.9247 32.0072 10.9287 31.8344C11.005 29.5041 11.9492 27.3224 13.6086 25.667C14.4577 24.8134 15.4677 24.1366 16.5802 23.6759C17.6926 23.2152 18.8853 22.9797 20.0894 22.9831C22.5363 22.9831 24.8385 23.9353 26.5702 25.667C28.2255 27.3224 29.1697 29.5041 29.2501 31.8344C29.2541 32.0072 29.3988 32.1438 29.5715 32.1438H31.8215C31.8644 32.1438 31.9069 32.1352 31.9464 32.1186C31.986 32.1019 32.0217 32.0775 32.0517 32.0468C32.0817 32.0161 32.1052 31.9797 32.1208 31.9398C32.1365 31.8999 32.144 31.8572 32.143 31.8143C32.0626 28.7206 30.8171 25.8197 28.6153 23.6219ZM20.0894 20.0902C18.7153 20.0902 17.4215 19.5559 16.4532 18.5835C15.9673 18.1014 15.5834 17.5264 15.3246 16.8927C15.0657 16.259 14.9371 15.5796 14.9465 14.8951C14.9586 13.5773 15.4849 12.3036 16.405 11.3594C17.3693 10.371 18.659 9.82059 20.0372 9.80451C21.3992 9.79246 22.7211 10.3228 23.6934 11.2751C24.6898 12.2514 25.2363 13.5572 25.2363 14.9474C25.2363 16.3215 24.7019 17.6112 23.7296 18.5835C23.2525 19.0628 22.6852 19.4428 22.0604 19.7014C21.4355 19.96 20.7656 20.0922 20.0894 20.0902ZM10.0247 16.0081C9.98849 15.6585 9.9684 15.305 9.9684 14.9474C9.9684 14.3085 10.0287 13.6858 10.1412 13.0791C10.1693 12.9344 10.093 12.7858 9.96037 12.7255C9.41394 12.4804 8.91171 12.1429 8.47778 11.717C7.96647 11.2212 7.56411 10.6243 7.29639 9.96436C7.02867 9.30439 6.90145 8.59586 6.92287 7.88398C6.95903 6.59425 7.47733 5.3688 8.38135 4.44469C9.37376 3.42818 10.7077 2.87371 12.126 2.88978C13.4077 2.90184 14.6452 3.39603 15.5813 4.27192C15.8988 4.56925 16.172 4.89871 16.401 5.25228C16.4813 5.37684 16.638 5.42907 16.7747 5.38085C17.4818 5.13576 18.2291 4.963 18.9965 4.88264C19.2215 4.85853 19.3501 4.61746 19.2497 4.41657C17.9438 1.83309 15.276 0.049157 12.1903 0.00094274C7.73448 -0.0673608 4.02198 3.58487 4.02198 8.03264C4.02198 10.5559 5.18314 12.8059 7.00322 14.2804C5.72555 14.871 4.54832 15.6867 3.52778 16.7072C1.32599 18.905 0.0804576 21.8059 0.000100471 24.9036C-0.000971916 24.9465 0.00654962 24.9892 0.0222221 25.0291C0.0378946 25.069 0.0614008 25.1054 0.0913557 25.1361C0.121311 25.1668 0.157108 25.1912 0.196639 25.2079C0.23617 25.2245 0.278634 25.2331 0.321529 25.2331H2.57555C2.74832 25.2331 2.89296 25.0965 2.89698 24.9237C2.97332 22.5934 3.91751 20.4117 5.57689 18.7563C6.75814 17.5751 8.20457 16.7554 9.78358 16.3576C9.94028 16.3175 10.0447 16.1688 10.0247 16.0081Z" fill="white" fill-opacity="0.85"/>
</svg>
